<?xml version="1.0" encoding="UTF-8"?>
<svg xmlns="http://www.w3.org/2000/svg" xmlns:xlink="http://www.w3.org/1999/xlink" width="1" height="1">
<defs>
<symbol viewBox="0 0 66 66" id="o-outline"><path d="M33 1c17.673 0 32 14.327 32 32 0 17.673-14.327 32-32 32C15.327 65 1 50.673 1 33 1 15.327 15.327 1 33 1Zm0 18.963c-7.2 0-13.037 5.837-13.037 13.037 0 7.2 5.837 13.037 13.037 13.037 7.2 0 13.037-5.837 13.037-13.037 0-7.2-5.837-13.037-13.037-13.037Z" stroke="currentColor" stroke-width="2" fill="none"/></symbol>
<symbol viewBox="0 0 64 64" id="o"><path d="M32 0c17.673 0 32 14.327 32 32 0 17.673-14.327 32-32 32C14.327 64 0 49.673 0 32 0 14.327 14.327 0 32 0Zm0 18.963c-7.2 0-13.037 5.837-13.037 13.037 0 7.2 5.837 13.037 13.037 13.037 7.2 0 13.037-5.837 13.037-13.037 0-7.2-5.837-13.037-13.037-13.037Z" fill="currentColor"/></symbol>
<symbol viewBox="0 0 20 20" id="restart"><path d="M19.524 0h-1.88a.476.476 0 0 0-.476.499l.159 3.284A9.81 9.81 0 0 0 9.835.317C4.415.317-.004 4.743 0 10.167.004 15.597 4.406 20 9.835 20a9.796 9.796 0 0 0 6.59-2.536.476.476 0 0 0 .019-.692l-1.348-1.349a.476.476 0 0 0-.65-.022 6.976 6.976 0 0 1-9.85-.63 6.987 6.987 0 0 1 .63-9.857 6.976 6.976 0 0 1 10.403 1.348l-4.027-.193a.476.476 0 0 0-.498.476v1.881c0 .263.213.476.476.476h7.944A.476.476 0 0 0 20 8.426V.476A.476.476 0 0 0 19.524 0Z" fill="currentColor"/></symbol>
<symbol viewBox="0 0 64 64" id="x-outline"><path d="M51.12 1.269c.511 0 1.023.195 1.414.586l9.611 9.611c.391.391.586.903.586 1.415s-.195 1.023-.586 1.414L44.441 32l17.704 17.705c.391.39.586.902.586 1.414 0 .512-.195 1.024-.586 1.415l-9.611 9.611c-.391.391-.903.586-1.415.586a1.994 1.994 0 0 1-1.414-.586L32 44.441 14.295 62.145c-.39.391-.902.586-1.414.586a1.994 1.994 0 0 1-1.415-.586l-9.611-9.611a1.994 1.994 0 0 1-.586-1.415c0-.512.195-1.023.586-1.414L19.559 32 1.855 14.295a1.994 1.994 0 0 1-.586-1.414c0-.512.195-1.024.586-1.415l9.611-9.611c.391-.391.903-.586 1.415-.586s1.023.195 1.414.586L32 19.559 49.705 1.855c.39-.391.902-.586 1.414-.586Z" stroke="currentColor" stroke-width="2" fill="none"/></symbol>
<symbol viewBox="0 0 64 64" id="icon-x"><path d="M15.002 1.147 32 18.145 48.998 1.147a3 3 0 0 1 4.243 0l9.612 9.612a3 3 0 0 1 0 4.243L45.855 32l16.998 16.998a3 3 0 0 1 0 4.243l-9.612 9.612a3 3 0 0 1-4.243 0L32 45.855 15.002 62.853a3 3 0 0 1-4.243 0L1.147 53.24a3 3 0 0 1 0-4.243L18.145 32 1.147 15.002a3 3 0 0 1 0-4.243l9.612-9.612a3 3 0 0 1 4.243 0Z" fill="currentColor" fill-rule="evenodd"/></symbol>
</defs>
</svg>